<svg width="512" height="512" viewBox="0 0 512 512" xmlns="http://www.w3.org/2000/svg">
  <defs>
    <linearGradient id="cg" x1="0" y1="0" x2="1" y2="1">
      <stop offset="0%" stop-color="#7c3aed"/>
      <stop offset="55%" stop-color="#a855f7"/>
      <stop offset="100%" stop-color="#ec4899"/>
    </linearGradient>
    <filter id="csh" x="-30%" y="-30%" width="160%" height="160%">
      <feDropShadow dx="0" dy="6" stdDeviation="10" flood-color="#000" flood-opacity="0.26"/>
    </filter>
  </defs>

  <rect x="0" y="0" width="512" height="512" rx="116" fill="url(#cg)"/>

  <g filter="url(#csh)">
    <!-- ViralADN: doble hélice (izquierda) -->
    <g transform="translate(18,120) scale(4.2)" stroke="#ffffff" stroke-linecap="round" fill="none">
      <g stroke-width="2.6">
        <path d="M22 12 C 42 22, 22 32, 42 42 C 22 52, 42 62, 42 62"/>
        <path d="M42 12 C 22 22, 42 32, 22 42 C 42 52, 22 62, 22 62"/>
      </g>
      <g stroke-width="1.8" opacity="0.9">
        <line x1="26" y1="15" x2="38" y2="15"/>
        <line x1="22" y1="27" x2="42" y2="27"/>
        <line x1="26" y1="39" x2="38" y2="39"/>
        <line x1="22" y1="51" x2="42" y2="51"/>
      </g>
    </g>

    <!-- ✕ -->
    <g stroke="#ffffff" stroke-width="13" stroke-linecap="round" opacity="0.92">
      <line x1="243" y1="243" x2="269" y2="269"/>
      <line x1="269" y1="243" x2="243" y2="269"/>
    </g>

    <!-- TOPCUT: tijera (derecha) -->
    <g transform="translate(255,145.5) scale(0.45)" stroke="#ffffff" stroke-width="26" stroke-linecap="round" fill="none">
      <line x1="200" y1="332" x2="364" y2="150"/>
      <line x1="312" y1="332" x2="148" y2="150"/>
      <circle cx="178" cy="356" r="34"/>
      <circle cx="334" cy="356" r="34"/>
    </g>
  </g>
</svg>
